<svg width="94" height="22" viewBox="0 0 94 22" fill="none" xmlns="http://www.w3.org/2000/svg">
<path d="M40.5015 2.59717L40.4888 2.60986C40.9613 3.23022 40.7747 4.34741 39.9624 5.25342C39.1012 6.21306 37.9181 6.51189 37.2544 6.00928L37.2515 6.01318L36.439 5.41064L36.7925 5.03955C36.7695 4.44602 37.0446 3.73953 37.5698 3.15381C38.1456 2.51178 38.903 2.14791 39.5405 2.16064L39.8921 1.79346L40.5015 2.59717Z" fill="url(#paint0_linear_1990_76)"/>
<path d="M39.4068 4.68998C40.33 3.66065 40.5108 2.32805 39.8106 1.71353C39.1104 1.099 37.7944 1.43527 36.8713 2.4646C35.9481 3.49393 35.7673 4.82654 36.4675 5.44106C37.1677 6.05558 38.4837 5.71931 39.4068 4.68998Z" fill="url(#paint1_linear_1990_76)"/>
<path d="M39.4197 4.7011C40.3372 3.67808 40.5077 2.34558 39.8004 1.72487C39.0932 1.10416 37.7761 1.4303 36.8586 2.45332C35.9411 3.47634 35.7706 4.80885 36.4778 5.42956C37.185 6.05026 38.5022 5.72413 39.4197 4.7011Z" fill="#0052FE"/>
<path d="M9.64087 11.073L18.6366 1.53833H13.8528L4.29882 11.466V1.53833H0V21.2796H4.29882V16.6252L6.81019 14.0468L12.7925 21.2796H17.8404L10.2494 11.8309L9.64087 11.0722V11.073Z" fill="#0052FE"/>
<path d="M32.4998 10.3119C31.1625 8.21331 28.7088 6.91528 25.7173 6.91528C22.5202 6.91528 19.9243 8.39897 18.6585 10.7499C18.1117 11.757 17.8135 12.9264 17.8135 14.2035C17.8135 18.4649 21.1495 21.4918 25.7173 21.4918C30.285 21.4918 33.5959 18.4649 33.5959 14.2035C33.5959 12.7351 33.2018 11.4122 32.4998 10.3119ZM25.7173 18.1233C23.6341 18.1233 22.031 16.6501 22.031 14.2035C22.031 12.0993 23.214 10.7153 24.8707 10.3697C25.1412 10.3111 25.4248 10.2821 25.7173 10.2821C25.9228 10.2821 26.1203 10.295 26.3144 10.3263C28.093 10.5803 29.3759 11.9957 29.3759 14.2035C29.3759 16.6501 27.8013 18.1233 25.7181 18.1233H25.7173Z" fill="#0052FE"/>
<path d="M40.5386 7.12573H36.373V21.2802H40.5386V7.12573Z" fill="#0052FE"/>
<path d="M53.1451 6.91528C51.1952 6.91528 49.5125 7.57434 48.3913 8.78315V7.12586H44.4126V21.2804H48.5774V14.2815C48.5774 13.2527 48.8016 12.4417 49.2005 11.8397C49.805 10.9114 50.8125 10.4686 52.0239 10.4686C53.661 10.4686 54.6864 11.2988 54.8944 13.0871C54.9212 13.3106 54.9342 13.5533 54.9342 13.8089V21.2796H57.2286L59.1022 18.706V13.1788C59.1022 8.86192 56.5372 6.91528 53.1451 6.91528Z" fill="#0052FE"/>
<path d="M80.7556 1.4707L60.3193 21.2803H66.6802L68.5473 18.6545L79.1217 3.77098L80.7556 1.4707Z" fill="url(#paint2_linear_1990_76)"/>
<path d="M74.7319 1.4707L74.0787 2.36928L63.8227 16.4635L60.3193 21.2803L80.7556 1.4707H74.7319Z" fill="url(#paint3_linear_1990_76)"/>
<path d="M78.7324 17.8211L78.4683 17.4514C78.2482 17.1427 77.8898 16.9595 77.5096 16.9595H72.7022C72.5242 16.9595 72.3861 17.064 72.3203 17.203L81.2064 21.2803L78.7324 17.8211Z" fill="#F69300"/>
<path d="M72.3205 17.2031C72.262 17.3269 72.2612 17.478 72.3481 17.6098L73.3353 19.0959H73.3377L74.7896 21.2805H81.2074L72.3213 17.2031H72.3205Z" fill="url(#paint4_linear_1990_76)"/>
<path d="M69.4311 5.13725L67.9094 2.92699L66.9068 1.47144H60.6279L69.3328 5.7079C69.5034 5.58172 69.5676 5.33578 69.4319 5.13725H69.4311Z" fill="url(#paint5_linear_1990_76)"/>
<path d="M60.6274 1.47077L63.3062 5.29091C63.3176 5.30618 63.3281 5.31904 63.3395 5.33431C63.5613 5.62124 63.905 5.79083 64.2722 5.79083H69.0821C69.1804 5.79083 69.2641 5.75707 69.3331 5.70644L60.6283 1.46997L60.6274 1.47077Z" fill="#F69300"/>
<path d="M87.6896 5.79006V2.10592H89.4568C89.6432 2.10592 89.8229 2.15085 89.996 2.2407C90.1723 2.32723 90.3171 2.45703 90.4303 2.63008C90.5467 2.79981 90.605 3.00948 90.605 3.25908C90.605 3.50869 90.5451 3.72501 90.4253 3.90805C90.3088 4.08776 90.159 4.22588 89.976 4.32239C89.7963 4.4189 89.6099 4.46716 89.4169 4.46716H88.0491V3.96296H89.2472C89.4169 3.96296 89.5683 3.90306 89.7014 3.78325C89.8379 3.66011 89.9061 3.48539 89.9061 3.25908C89.9061 3.02612 89.8379 2.85972 89.7014 2.75988C89.5683 2.66004 89.4219 2.61011 89.2621 2.61011H88.3336V5.79006H87.6896ZM89.8362 4.07778L90.7548 5.79006H90.0359L89.1423 4.07778H89.8362ZM89.0425 7.98656C88.49 7.98656 87.9725 7.88339 87.4899 7.67706C87.0074 7.47072 86.5831 7.18451 86.217 6.81842C85.8509 6.45234 85.5647 6.02801 85.3583 5.54545C85.152 5.06288 85.0488 4.54537 85.0488 3.99292C85.0488 3.44046 85.152 2.92295 85.3583 2.44038C85.5647 1.95782 85.8509 1.53349 86.217 1.16741C86.5831 0.801326 87.0074 0.515114 87.4899 0.308776C87.9725 0.102437 88.49 -0.000732422 89.0425 -0.000732422C89.5949 -0.000732422 90.1124 0.102437 90.595 0.308776C91.0776 0.515114 91.5019 0.801326 91.868 1.16741C92.2341 1.53349 92.5203 1.95782 92.7266 2.44038C92.933 2.92295 93.0361 3.44046 93.0361 3.99292C93.0361 4.54537 92.933 5.06288 92.7266 5.54545C92.5203 6.02801 92.2341 6.45234 91.868 6.81842C91.5019 7.18451 91.0776 7.47072 90.595 7.67706C90.1124 7.88339 89.5949 7.98656 89.0425 7.98656ZM89.0425 7.24275C89.6415 7.24275 90.1857 7.09631 90.6749 6.80345C91.1674 6.51058 91.5601 6.11953 91.853 5.63031C92.1459 5.13776 92.2923 4.59196 92.2923 3.99292C92.2923 3.39387 92.1459 2.84973 91.853 2.36051C91.5601 1.86796 91.1674 1.47525 90.6749 1.18239C90.1857 0.889518 89.6415 0.743085 89.0425 0.743085C88.4434 0.743085 87.8976 0.889518 87.4051 1.18239C86.9159 1.47525 86.5248 1.86796 86.2319 2.36051C85.9391 2.84973 85.7926 3.39387 85.7926 3.99292C85.7926 4.59196 85.9391 5.13776 86.2319 5.63031C86.5248 6.11953 86.9159 6.51058 87.4051 6.80345C87.8976 7.09631 88.4434 7.24275 89.0425 7.24275Z" fill="#334155"/>
<defs>
<linearGradient id="paint0_linear_1990_76" x1="40.6018" y1="2.79806" x2="37.593" y2="6.34572" gradientUnits="userSpaceOnUse">
<stop stop-color="#3372F5"/>
<stop offset="0.249995" stop-color="#3372F5"/>
<stop offset="0.505208" stop-color="#80DBFB"/>
<stop offset="0.838547" stop-color="#3372F5"/>
<stop offset="1" stop-color="#3372F5"/>
</linearGradient>
<linearGradient id="paint1_linear_1990_76" x1="45.1138" y1="2.78643" x2="44.3085" y2="3.70273" gradientUnits="userSpaceOnUse">
<stop stop-color="#0080D4"/>
<stop offset="0.47" stop-color="white"/>
<stop offset="0.6" stop-color="#F1F8FC"/>
<stop offset="1" stop-color="#007DCC"/>
</linearGradient>
<linearGradient id="paint2_linear_1990_76" x1="76.1643" y1="6.78658" x2="68.3446" y2="15.9316" gradientUnits="userSpaceOnUse">
<stop stop-color="#FFAC00"/>
<stop offset="1" stop-color="#FE7801"/>
</linearGradient>
<linearGradient id="paint3_linear_1990_76" x1="60.3193" y1="11.3759" x2="80.7556" y2="11.3759" gradientUnits="userSpaceOnUse">
<stop stop-color="#FFCE00"/>
<stop offset="1" stop-color="#FFB003"/>
</linearGradient>
<linearGradient id="paint4_linear_1990_76" x1="72.2791" y1="19.2422" x2="81.2066" y2="19.2422" gradientUnits="userSpaceOnUse">
<stop stop-color="#FE8B01"/>
<stop offset="1" stop-color="#FE7801"/>
</linearGradient>
<linearGradient id="paint5_linear_1990_76" x1="60.6271" y1="3.58927" x2="69.5051" y2="3.58927" gradientUnits="userSpaceOnUse">
<stop stop-color="#FFCE00"/>
<stop offset="1" stop-color="#FFC101"/>
</linearGradient>
</defs>
</svg>
